<?xml version="1.0" standalone="no"?>
<!DOCTYPE svg PUBLIC "-//W3C//DTD SVG 20010904//EN"
 "http://www.w3.org/TR/2001/REC-SVG-20010904/DTD/svg10.dtd">
<svg version="1.0" xmlns="http://www.w3.org/2000/svg"
 width="500.000000pt" height="500.000000pt" viewBox="0 0 500.000000 500.000000"
 preserveAspectRatio="xMidYMid meet">

<g transform="translate(0.000000,500.000000) scale(0.100000,-0.100000)"
fill="#000000" stroke="none">
<path d="M3173 4203 c-17 -10 -50 -34 -73 -53 -23 -19 -49 -39 -56 -43 -21
-12 -54 2 -54 23 0 21 -20 31 -48 23 -18 -4 -20 -11 -16 -46 7 -73 15 -107 23
-107 4 0 13 -11 19 -25 6 -14 19 -25 27 -25 18 0 103 60 186 132 52 44 61 48
107 48 51 0 82 7 82 19 0 3 -36 6 -80 6 l-79 0 -53 -50 c-29 -27 -55 -53 -58
-56 -3 -4 -15 -9 -28 -13 -12 -4 -20 -11 -18 -15 3 -4 -11 -5 -30 -3 -20 3
-39 12 -44 23 -9 17 -7 18 20 13 32 -7 85 19 75 36 -3 6 1 7 9 4 10 -4 16 -1
16 7 0 7 3 10 6 6 4 -3 26 15 50 40 42 44 46 45 87 40 24 -3 50 -9 59 -12 8
-3 23 1 32 10 20 21 22 42 1 25 -11 -9 -22 -9 -46 -1 -45 16 -79 14 -116 -6z"/>
<path d="M2613 4183 c-7 -2 -13 -9 -13 -14 0 -6 4 -8 9 -5 5 4 7 -3 4 -14 -6
-22 -23 -28 -23 -8 0 6 -7 3 -15 -8 -14 -19 -14 -19 -15 1 -1 19 -1 19 -11 1
-9 -15 -13 -16 -20 -5 -7 11 -9 10 -9 -3 0 -11 -5 -15 -15 -12 -11 5 -13 2 -9
-10 4 -9 1 -16 -6 -16 -10 0 -10 -3 0 -15 10 -12 9 -15 -6 -16 -11 0 -14 -3
-7 -5 7 -3 9 -13 6 -21 -5 -13 -2 -15 11 -10 13 5 17 3 13 -7 -4 -11 -1 -13
10 -9 13 5 15 2 10 -11 -4 -9 -3 -15 2 -12 16 10 19 45 5 50 -22 9 -17 54 7
61 12 4 26 2 32 -4 8 -8 3 -11 -17 -11 -21 0 -27 -4 -24 -17 4 -20 38 -19 50
0 5 8 8 6 8 -5 0 -10 -9 -22 -20 -28 -11 -6 -20 -21 -20 -33 1 -21 1 -22 15
-3 13 17 15 18 15 3 0 -9 4 -17 10 -17 5 0 7 8 3 18 -5 14 -3 15 8 5 14 -14
33 -18 25 -5 -2 4 11 6 30 4 33 -4 34 -6 32 -41 -3 -34 -2 -36 26 -33 16 2 43
11 60 20 17 9 33 16 36 17 13 1 30 17 25 25 -3 4 1 13 9 19 22 19 13 53 -19
72 -35 20 -71 27 -45 8 12 -9 12 -10 -3 -5 -10 3 -25 6 -33 6 -9 0 -14 10 -14
28 0 45 -25 72 -68 71 -20 0 -43 -3 -49 -6z m217 -197 c0 -3 -4 -8 -10 -11 -5
-3 -10 -1 -10 4 0 6 5 11 10 11 6 0 10 -2 10 -4z"/>
<path d="M2375 4073 c3 -32 7 -69 10 -83 2 -14 7 -56 10 -94 6 -75 15 -102 15
-45 0 19 4 39 9 44 5 6 4 59 -2 123 -10 98 -13 112 -29 112 -16 0 -18 -7 -13
-57z"/>
<path d="M2388 3703 c-10 -43 -15 -88 -12 -100 4 -13 2 -23 -3 -23 -4 0 -7
-21 -6 -47 1 -27 0 -59 -3 -71 -4 -20 -7 -22 -19 -12 -12 10 -15 9 -16 -4 -2
-28 -4 -32 -24 -69 -11 -21 -24 -36 -30 -33 -6 2 -12 -15 -13 -43 -2 -52 -18
-97 -44 -123 -10 -10 -18 -29 -18 -43 0 -25 -20 -37 -20 -12 -1 22 -27 -37
-34 -78 -13 -71 -29 -115 -43 -115 -8 0 -13 -12 -13 -34 0 -19 -5 -47 -11 -63
-8 -22 -12 -24 -19 -13 -11 17 -12 12 -14 -45 -1 -22 -5 -50 -9 -62 -6 -18 -5
-23 7 -23 19 0 21 -11 4 -28 -9 -9 -9 -15 0 -24 25 -25 6 -121 -24 -116 -32 6
-51 -90 -28 -146 6 -15 4 -18 -9 -13 -10 4 -25 -4 -41 -23 -14 -17 -31 -30
-38 -30 -10 0 -10 2 1 9 7 5 11 14 7 20 -4 5 2 16 14 23 25 16 25 25 -1 33
-11 4 -25 19 -31 33 -6 15 -29 43 -52 63 l-40 36 28 26 27 25 -76 7 -77 8 29
18 c15 10 22 19 16 19 -8 0 -13 14 -13 35 0 24 5 35 15 35 8 0 15 4 15 9 0 5
-7 11 -15 15 -8 3 -15 13 -15 21 0 27 -18 7 -25 -28 -4 -17 -16 -44 -26 -59
-11 -14 -19 -32 -19 -40 0 -8 -4 -18 -10 -24 -12 -12 15 -54 36 -54 25 0 15
-14 -31 -43 -24 -16 -54 -44 -66 -63 -12 -20 -31 -39 -43 -44 l-21 -9 22 0
c32 -1 53 -28 53 -66 0 -27 -7 -39 -33 -59 -19 -15 -39 -26 -45 -26 -15 0 -15
-17 0 -22 6 -2 13 -11 14 -19 2 -7 10 -34 19 -59 17 -47 14 -144 -6 -155 -5
-4 -9 -15 -9 -27 0 -11 -8 -22 -20 -25 -11 -3 -27 -23 -37 -44 -17 -35 -21
-39 -59 -39 -40 0 -40 0 -39 -37 0 -24 11 -53 28 -80 l28 -41 102 -6 c56 -3
185 -11 287 -16 102 -6 272 -15 379 -21 134 -8 200 -8 215 -1 11 6 80 13 151
17 72 3 193 10 270 15 77 5 227 15 333 21 187 12 193 13 208 37 l17 25 -129
-6 c-71 -4 -271 -14 -444 -22 -173 -8 -334 -17 -357 -20 -24 -2 -43 -1 -43 4
0 11 83 18 490 36 450 21 476 23 476 45 0 10 -7 17 -15 15 -8 -1 -26 4 -40 11
-18 9 -27 10 -32 3 -4 -6 -8 -7 -10 -3 -2 5 -103 6 -224 3 -506 -15 -648 -15
-653 0 -4 11 10 13 72 9 62 -4 81 -2 94 11 21 21 132 25 132 5 0 -19 16 -18
24 1 3 8 17 15 31 15 26 0 30 6 16 28 -7 11 -9 11 -14 -2 -10 -27 -27 -18 -27
14 l0 30 64 0 c42 0 66 4 70 13 5 10 7 10 12 0 3 -7 23 -13 45 -13 28 0 42 -6
51 -20 14 -23 34 -26 42 -7 3 6 3 2 0 -10 -4 -19 -1 -23 20 -23 15 0 26 6 26
14 0 7 6 19 14 25 18 15 56 -2 56 -24 0 -8 5 -15 10 -15 6 0 9 -6 8 -12 -2 -8
11 -14 35 -16 28 -2 37 0 37 12 0 9 -7 16 -15 16 -8 0 -15 9 -15 20 0 11 6 20
14 20 18 0 25 20 15 45 -4 11 -8 55 -8 98 -1 64 2 80 19 97 23 23 25 28 8 27
-41 -1 -80 4 -74 10 4 4 21 6 39 5 23 -2 35 3 45 18 12 20 10 20 -85 22 -54 0
-104 1 -110 1 -7 -1 -13 3 -13 8 0 5 7 9 16 9 8 0 13 4 10 9 -3 4 -17 6 -31 3
-38 -7 -30 7 16 27 23 10 36 20 29 23 -6 2 -8 11 -5 20 7 18 47 28 112 28 31
0 43 4 41 13 -3 8 -44 16 -114 23 -60 6 -97 12 -82 13 32 1 42 25 32 76 -6 33
-4 35 19 35 24 0 79 52 60 56 -4 2 -29 5 -55 9 l-46 6 2 50 c2 30 9 55 17 61
11 7 11 11 2 15 -7 2 -13 17 -13 31 l-1 27 -19 -24 c-11 -13 -20 -33 -20 -46
0 -12 -7 -28 -15 -35 -8 -6 -17 -22 -21 -33 -3 -12 -13 -30 -22 -40 -8 -9 -13
-19 -11 -20 2 -2 17 -13 32 -25 l28 -21 -41 -26 c-22 -14 -49 -40 -60 -58 -10
-18 -23 -37 -28 -42 -5 -6 -7 -16 -4 -23 2 -7 -2 -20 -9 -28 -11 -14 -10 -18
6 -30 17 -13 16 -14 -16 -14 -48 0 -62 11 -53 43 4 17 2 27 -5 27 -6 0 -12 -4
-12 -10 -1 -5 -3 -14 -4 -20 -1 -5 -3 -15 -4 -21 0 -6 -11 -9 -23 -7 -17 2
-22 10 -23 36 -1 23 2 31 11 28 8 -3 14 6 16 26 2 17 9 34 17 36 10 3 12 -1 9
-16 -3 -11 -2 -26 3 -33 7 -11 9 -9 9 5 0 20 0 20 15 0 19 -25 19 -5 0 22 -8
12 -11 24 -8 28 3 3 -2 6 -13 6 -17 1 -17 2 -3 13 16 12 15 14 -1 34 -12 15
-20 19 -28 11 -17 -17 -34 28 -27 73 4 21 10 39 15 39 4 0 6 9 3 20 -3 11 0
26 6 34 9 10 -4 15 -72 25 -45 6 -107 11 -137 11 -47 1 -53 2 -38 14 10 7 16
24 15 41 -1 15 4 30 11 32 7 3 12 -3 12 -14 0 -24 27 -63 44 -63 13 0 17 100
4 110 -9 7 1 50 12 50 4 0 8 -12 9 -27 1 -52 4 -63 18 -63 7 0 13 -6 13 -14 0
-33 63 -22 73 13 3 14 -1 22 -14 26 -11 4 -16 11 -12 17 10 17 10 70 0 98 l-9
25 -9 -22 c-10 -26 -24 -30 -33 -8 -3 8 -1 15 5 15 6 0 7 5 4 10 -3 6 -1 10 6
10 8 0 8 4 2 13 -10 12 -13 30 -13 73 0 12 -9 29 -20 39 -11 10 -21 30 -21 44
-1 15 -3 19 -6 9 -7 -28 -30 -29 -30 -2 0 27 -38 74 -60 74 -8 0 -11 5 -8 10
3 6 2 10 -3 10 -5 0 -6 14 -4 31 3 23 1 30 -8 24 -8 -5 -11 0 -10 16 4 39 1
51 -11 43 -8 -5 -9 8 -4 46 6 42 5 51 -6 48 -8 -3 -13 -16 -11 -32 2 -19 -2
-26 -14 -26 -13 0 -15 6 -10 30 3 18 2 29 -3 25 -5 -3 -12 -1 -16 5 -3 5 -1
10 4 10 6 0 11 9 11 19 0 11 6 23 12 27 9 6 6 10 -10 14 -22 5 -31 19 -14 21
13 1 26 33 15 36 -6 2 -9 13 -6 23 4 14 0 20 -11 20 -16 0 -20 31 -16 123 1
20 0 37 -2 37 -2 0 -11 -35 -20 -77z m18 -270 c-4 -4 -11 -1 -16 7 -16 25 -11
35 7 17 9 -9 13 -20 9 -24z m6 -77 c1 -10 -2 -21 -8 -23 -13 -4 -23 25 -16 45
5 17 19 4 24 -22z m46 -36 c-1 -16 -6 -30 -11 -30 -6 0 -7 3 -4 7 4 3 2 13 -5
20 -9 11 -9 17 3 24 8 5 15 9 16 9 1 0 1 -13 1 -30z m87 -130 c4 -6 10 -8 15
-5 4 3 6 -4 3 -16 -4 -16 -8 -17 -14 -7 -5 7 -9 9 -9 3 1 -16 26 -45 33 -38 4
3 7 -3 7 -13 0 -17 -5 -19 -35 -16 -39 5 -39 5 -24 34 9 16 8 23 -2 29 -12 7
-12 9 0 9 7 0 11 6 7 15 -6 17 9 21 19 5z m-1 -168 c8 -13 -3 -62 -14 -62 -4
0 -7 30 -8 68 0 50 1 59 7 36 4 -17 11 -36 15 -42z m-107 52 c-3 -3 -12 -4
-19 -1 -8 3 -5 6 6 6 11 1 17 -2 13 -5z m141 -19 c-3 -3 -9 2 -12 12 -6 14 -5
15 5 6 7 -7 10 -15 7 -18z m72 -15 c0 -5 -4 -10 -10 -10 -5 0 -10 5 -10 10 0
6 5 10 10 10 6 0 10 -4 10 -10z m-196 -30 c18 0 22 -6 21 -31 0 -25 -3 -29
-20 -25 -11 3 -33 6 -48 6 -16 0 -26 4 -22 10 3 6 15 10 27 10 17 0 19 5 14
28 -3 15 -3 21 0 15 3 -7 16 -13 28 -13z m183 -87 c1 -22 -1 -24 -8 -10 -6 9
-7 22 -4 27 9 14 10 13 12 -17z m-57 1 c0 -8 -4 -12 -10 -9 -5 3 -10 10 -10
16 0 5 5 9 10 9 6 0 10 -7 10 -16z m-464 -50 c-16 -30 -21 -17 -10 24 4 15 10
20 16 14 6 -6 4 -20 -6 -38z m404 16 c0 -5 -7 -10 -15 -10 -8 0 -15 5 -15 10
0 6 7 10 15 10 8 0 15 -4 15 -10z m174 -35 c7 -19 -5 -19 -30 0 -19 14 -19 14
2 15 12 0 24 -7 28 -15z m-214 -38 c0 -5 -4 -5 -10 -2 -5 3 -10 14 -10 23 0
15 2 15 10 2 5 -8 10 -19 10 -23z m-36 -24 c6 -18 4 -22 -8 -17 -18 7 -30 39
-20 55 8 13 16 1 28 -38z m27 -40 c-10 -4 -8 -9 10 -19 23 -13 22 -13 -18 -14
-48 0 -75 8 -67 21 3 5 10 7 15 4 5 -4 9 -1 9 4 0 6 15 11 33 10 17 0 26 -3
18 -6z m-181 -18 c0 -8 -4 -15 -10 -15 -5 0 -7 7 -4 15 4 8 8 15 10 15 2 0 4
-7 4 -15z m-190 -114 c0 -17 -12 -41 -21 -41 -10 0 -12 33 -2 43 9 10 23 9 23
-2z m400 -1 c0 -5 -12 -10 -27 -10 -22 0 -25 2 -13 10 20 13 40 13 40 0z
m-130 -30 c0 -5 -5 -10 -11 -10 -5 0 -7 5 -4 10 3 6 8 10 11 10 2 0 4 -4 4
-10z m136 -7 c-1 -10 -6 -34 -10 -54 -7 -33 -10 -35 -39 -31 -25 3 -29 1 -17
-7 8 -6 23 -11 33 -11 10 0 22 -12 27 -26 13 -34 13 -34 -11 -34 -14 0 -19 5
-16 14 7 18 -12 36 -39 36 -28 0 -34 25 -16 69 7 18 11 40 8 47 -4 11 5 14 38
14 35 0 43 -3 42 -17z m84 -55 c0 -5 -4 -8 -10 -8 -5 0 -10 10 -10 23 0 18 2
19 10 7 5 -8 10 -18 10 -22z m77 10 c-3 -8 -6 -5 -6 6 -1 11 2 17 5 13 3 -3 4
-12 1 -19z m-869 -38 c45 -28 44 -60 -2 -60 -62 0 -78 17 -60 64 8 21 22 20
62 -4z m832 -58 c0 -26 -25 -5 -28 24 -2 28 -2 28 13 10 8 -11 15 -26 15 -34z
m-186 3 c4 -10 -1 -15 -14 -15 -11 0 -20 7 -20 15 0 8 6 15 14 15 8 0 16 -7
20 -15z m236 -28 c0 -5 -4 -5 -10 -2 -5 3 -10 14 -10 23 0 15 2 15 10 2 5 -8
10 -19 10 -23z m-864 4 c-4 -5 0 -11 6 -14 33 -11 -6 -16 -68 -8 -38 4 -59 9
-46 10 12 0 22 6 22 11 0 6 21 10 46 10 25 0 43 -4 40 -9z m829 -35 c18 7 19
-6 2 -30 -17 -23 -47 -11 -47 18 0 29 12 41 22 22 5 -8 15 -13 23 -10z m-458
-8 c-3 -8 -6 -5 -6 6 -1 11 2 17 5 13 3 -3 4 -12 1 -19z m333 -19 c0 -5 -8 -9
-17 -10 -11 0 -13 -3 -5 -6 29 -11 8 -23 -43 -23 -53 0 -74 13 -37 23 14 4 13
6 -6 12 -31 10 -11 34 23 27 14 -2 25 0 25 6 0 6 12 4 30 -4 17 -9 30 -20 30
-25z m-715 -20 c3 -4 -13 -6 -35 -6 -22 0 -40 3 -40 7 0 8 66 7 75 -1z m385 1
c0 -5 -4 -10 -9 -10 -6 0 -13 5 -16 10 -3 6 1 10 9 10 9 0 16 -4 16 -10z m472
-18 c9 -9 9 -12 -2 -12 -26 0 -60 12 -60 20 0 12 49 5 62 -8z m-869 -9 c-13
-2 -33 -2 -45 0 -13 2 -3 4 22 4 25 0 35 -2 23 -4z m1 -23 c50 -18 28 -30 -56
-30 l-83 1 35 19 c40 22 67 24 104 10z m390 -18 c-22 -5 -31 7 -14 18 9 6 17
5 22 -3 4 -7 1 -13 -8 -15z m261 18 c19 -8 19 -9 -2 -9 -12 -1 -25 4 -28 9 -7
12 2 12 30 0z m361 -18 c-2 -2 -21 0 -42 4 -36 7 -37 8 -14 14 22 6 65 -8 56
-18z m104 13 c8 -2 21 -4 28 -4 6 -1 12 -6 12 -11 0 -10 -98 -4 -110 7 -9 8
25 23 40 17 8 -3 22 -7 30 -9z m-1090 -45 c0 -6 -39 -10 -107 -9 -114 2 -92
12 35 17 45 2 72 -1 72 -8z m380 -10 c0 -6 -11 -8 -27 -4 -40 10 -41 14 -5 14
18 0 32 -5 32 -10z m727 -16 c-3 -3 -12 -4 -19 -1 -8 3 -5 6 6 6 11 1 17 -2
13 -5z m-1275 -88 c9 -13 10 -73 2 -114 -7 -33 -33 -50 -46 -30 -9 15 -11 152
-2 161 8 7 37 -3 46 -17z m106 -52 c2 -55 -1 -74 -13 -84 -24 -20 -30 -5 -34
82 -3 79 -3 80 20 76 22 -3 24 -8 27 -74z m110 -7 c-2 -37 -8 -62 -15 -65 -10
-3 -13 15 -13 67 0 59 2 69 15 64 12 -4 15 -19 13 -66z m1355 40 c7 -43 -6
-146 -21 -172 -8 -14 -11 -16 -12 -5 0 8 -9 21 -20 27 -16 11 -18 10 -14 -2 4
-8 10 -15 15 -15 5 0 9 -6 9 -14 0 -8 6 -17 13 -19 6 -3 2 -6 -11 -6 -16 -1
-26 7 -34 27 -6 15 -10 32 -8 37 1 6 2 30 1 54 -1 25 1 62 4 83 6 35 9 38 40
38 29 0 33 -3 38 -33z m-1273 -49 c0 -27 -4 -38 -15 -38 -12 0 -15 13 -15 58
1 52 2 55 15 38 8 -11 15 -37 15 -58z m-151 5 c-2 -54 -2 -55 -8 -18 -6 38 -3
75 5 75 2 0 3 -26 3 -57z m1293 -39 c2 -47 0 -88 -4 -91 -5 -2 -8 -1 -8 4 -1
4 -3 45 -6 91 -4 53 -2 82 4 82 6 0 12 -36 14 -86z m-422 57 c0 -6 -4 -13 -10
-16 -5 -3 -10 1 -10 9 0 9 5 16 10 16 6 0 10 -4 10 -9z m447 -48 c-3 -10 -5
-2 -5 17 0 19 2 27 5 18 2 -10 2 -26 0 -35z m-655 1 c16 -9 27 -11 24 -5 -4 6
-2 11 3 11 6 0 11 -9 11 -19 0 -15 -7 -19 -32 -17 -20 1 -32 6 -30 14 1 6 -2
12 -8 12 -5 0 -10 5 -10 10 0 13 6 13 42 -6z m411 9 c-7 -2 -19 -2 -25 0 -7 3
-2 5 12 5 14 0 19 -2 13 -5z m-220 -28 c4 -8 2 -17 -3 -20 -6 -4 -10 -4 -10
-1 0 2 -3 11 -6 20 -3 9 -2 16 4 16 5 0 12 -7 15 -15z m-78 -5 c-3 -5 -15 -10
-26 -10 -10 0 -19 5 -19 10 0 6 12 10 26 10 14 0 23 -4 19 -10z m57 -58 c-19
-5 -23 1 -29 40 l-5 33 24 -35 c19 -27 21 -36 10 -38z m327 34 c-3 -3 -11 5
-18 17 -13 21 -12 21 5 5 10 -10 16 -20 13 -22z m-113 -21 c-8 -22 -26 -18
-26 6 0 11 5 17 10 14 6 -3 10 0 11 7 0 10 2 10 6 0 3 -7 2 -19 -1 -27z m-389
2 c10 4 14 2 9 -5 -7 -11 -46 -13 -46 -2 0 12 15 21 18 11 2 -5 10 -7 19 -4z
m599 -44 c-2 -3 -9 -2 -15 2 -8 4 -7 13 1 28 l13 22 3 -23 c2 -13 1 -26 -2
-29z m-819 -5 c-3 -8 -6 -5 -6 6 -1 11 2 17 5 13 3 -3 4 -12 1 -19z m513 7 c0
-8 -4 -15 -10 -15 -5 0 -10 7 -10 15 0 8 5 15 10 15 6 0 10 -7 10 -15z m-273
-11 c0 -8 -7 -13 -16 -12 -22 4 -49 -25 -53 -59 -3 -26 -6 -28 -55 -31 -32 -2
-53 1 -53 7 0 11 29 15 80 12 20 -2 22 0 10 8 -14 10 -23 64 -10 56 4 -2 12 4
19 14 17 23 78 27 78 5z m181 9 c-10 -2 -26 -2 -35 0 -10 3 -2 5 17 5 19 0 27
-2 18 -5z m-958 -27 c0 -3 -4 -8 -10 -11 -5 -3 -10 -1 -10 4 0 6 5 11 10 11 6
0 10 -2 10 -4z m940 -6 c0 -5 -4 -10 -10 -10 -5 0 -10 5 -10 10 0 6 5 10 10
10 6 0 10 -4 10 -10z m-470 -26 c0 -8 -4 -12 -10 -9 -5 3 -10 13 -10 21 0 8 5
12 10 9 6 -3 10 -13 10 -21z m560 16 c0 -5 -2 -10 -4 -10 -3 0 -8 5 -11 10 -3
6 -1 10 4 10 6 0 11 -4 11 -10z m-380 -10 c0 -5 -2 -10 -4 -10 -3 0 -8 5 -11
10 -3 6 -1 10 4 10 6 0 11 -4 11 -10z m-840 -20 c0 -5 -2 -10 -4 -10 -3 0 -8
5 -11 10 -3 6 -1 10 4 10 6 0 11 -4 11 -10z m820 0 c0 -5 -5 -10 -11 -10 -5 0
-7 5 -4 10 3 6 8 10 11 10 2 0 4 -4 4 -10z m-74 -12 c5 -8 2 -9 -9 -5 -9 3
-19 2 -22 -3 -8 -13 -55 -13 -55 0 0 6 11 8 26 4 19 -5 25 -4 20 5 -5 7 0 11
13 11 11 0 23 -5 27 -12z m-533 -5 c-18 -2 -48 -2 -65 0 -18 2 -4 4 32 4 36 0
50 -2 33 -4z m1587 -37 c0 -21 -59 -26 -70 -7 -6 10 -10 11 -10 4 0 -15 -30
-18 -30 -3 0 18 -20 11 -21 -7 -1 -17 -2 -17 -6 0 -4 14 -16 17 -69 17 -57 0
-64 -2 -64 -20 0 -18 -7 -20 -71 -20 -62 0 -70 2 -59 15 10 13 9 15 -9 15 -12
0 -21 -6 -21 -15 0 -8 -7 -15 -16 -15 -10 0 -14 6 -10 15 7 18 -29 21 -40 3
-4 -7 -3 -8 4 -4 7 4 12 1 12 -8 0 -10 -9 -16 -26 -16 -14 0 -23 4 -20 9 3 5
0 14 -8 20 -16 14 -66 4 -63 -11 1 -6 -8 -11 -20 -13 -24 -2 -31 10 -10 18 6
2 9 8 4 12 -4 5 -12 4 -18 -2 -7 -7 -41 -9 -93 -6 -55 4 -90 2 -102 -6 -15
-10 -9 -11 34 -5 42 5 51 3 47 -8 -4 -9 -21 -13 -58 -12 -44 2 -52 5 -55 23
-3 20 1 21 90 22 51 0 100 2 108 3 8 2 156 6 329 10 173 3 317 8 319 11 8 7
22 -5 22 -19z m59 -3 c9 -10 7 -13 -13 -13 -13 0 -26 6 -29 14 -7 18 24 17 42
-1z m-279 -13 c0 -5 -4 -10 -10 -10 -5 0 -10 5 -10 10 0 6 5 10 10 10 6 0 10
-4 10 -10z m-320 -13 c0 -8 -7 -14 -15 -14 -16 0 -19 9 -8 20 11 11 23 8 23
-6z"/>
<path d="M2448 2553 c7 -3 16 -2 19 1 4 3 -2 6 -13 5 -11 0 -14 -3 -6 -6z"/>
<path d="M2430 2521 c0 -5 9 -7 20 -4 11 3 20 7 20 9 0 2 -9 4 -20 4 -11 0
-20 -4 -20 -9z"/>
<path d="M2610 2376 c0 -2 7 -9 15 -16 9 -7 15 -8 15 -2 0 5 -7 12 -15 16 -8
3 -15 4 -15 2z"/>
<path d="M2940 1780 c0 -5 7 -10 16 -10 8 0 12 5 9 10 -3 6 -10 10 -16 10 -5
0 -9 -4 -9 -10z"/>
<path d="M2990 1780 c0 -5 5 -10 11 -10 5 0 7 5 4 10 -3 6 -8 10 -11 10 -2 0
-4 -4 -4 -10z"/>
<path d="M2516 3331 c-4 -7 -5 -15 -2 -18 9 -9 19 4 14 18 -4 11 -6 11 -12 0z"/>
<path d="M2536 3304 c-9 -23 -8 -24 13 -24 14 0 18 5 14 20 -6 24 -19 26 -27
4z"/>
<path d="M2546 3257 c-16 -12 -16 -14 -2 -26 9 -8 16 -12 17 -10 2 10 6 49 4
49 -1 0 -9 -6 -19 -13z"/>
<path d="M2700 2744 c0 -18 28 -30 41 -17 6 6 0 14 -16 21 -21 10 -25 9 -25
-4z"/>
<path d="M3173 2323 c9 -2 25 -2 35 0 9 3 1 5 -18 5 -19 0 -27 -2 -17 -5z"/>
<path d="M3173 2293 c9 -2 25 -2 35 0 9 3 1 5 -18 5 -19 0 -27 -2 -17 -5z"/>
<path d="M3128 2253 c7 -3 16 -2 19 1 4 3 -2 6 -13 5 -11 0 -14 -3 -6 -6z"/>
<path d="M3203 2253 c9 -2 25 -2 35 0 9 3 1 5 -18 5 -19 0 -27 -2 -17 -5z"/>
<path d="M3276 1901 c-3 -5 0 -12 6 -15 10 -5 10 -7 1 -12 -17 -8 -4 -34 13
-27 8 3 14 13 14 23 0 21 -26 45 -34 31z"/>
<path d="M2822 1863 c2 -10 12 -19 22 -21 11 -3 16 0 12 7 -4 6 -1 11 6 11 9
0 9 3 -2 10 -24 15 -42 12 -38 -7z"/>
<path d="M2915 1870 l-40 -7 43 -2 c23 0 42 4 42 9 0 6 -1 9 -2 9 -2 -1 -21
-5 -43 -9z"/>
<path d="M2780 1840 c0 -5 5 -10 10 -10 6 0 10 5 10 10 0 6 -4 10 -10 10 -5 0
-10 -4 -10 -10z"/>
<path d="M2878 1843 c7 -3 16 -2 19 1 4 3 -2 6 -13 5 -11 0 -14 -3 -6 -6z"/>
<path d="M1755 1519 c-32 -18 -45 -40 -45 -74 0 -42 24 -62 99 -86 103 -32
128 -54 115 -104 -16 -65 -129 -73 -191 -14 l-35 34 8 -40 c3 -22 7 -41 8 -42
1 -1 39 -5 83 -9 95 -8 131 3 156 45 9 16 17 47 17 69 0 53 -37 84 -129 112
-72 21 -97 40 -87 65 17 44 105 43 151 -3 l28 -27 -7 34 c-3 19 -7 36 -9 37
-10 10 -145 13 -162 3z"/>
<path d="M2028 1508 c8 -8 12 -58 12 -158 0 -100 -4 -150 -12 -158 -9 -9 16
-12 114 -12 l126 0 16 47 c17 50 15 68 -4 33 -14 -27 -84 -59 -127 -60 -54 0
-64 20 -61 119 l3 86 39 -2 c22 -2 48 -11 59 -20 20 -18 20 -17 14 7 -4 14 -7
31 -7 37 0 9 -7 10 -26 3 -62 -24 -93 -6 -80 45 6 22 12 25 55 25 35 0 58 -7
86 -26 l38 -25 -7 23 c-3 13 -6 29 -6 36 0 9 -31 12 -122 12 -95 0 -119 -3
-110 -12z"/>
<path d="M2329 1506 c17 -20 109 -299 104 -313 -3 -9 8 -13 36 -13 30 0 39 3
35 14 -3 7 21 84 54 170 58 154 59 156 36 156 -18 0 -24 -5 -24 -22 1 -26 -81
-258 -90 -258 -9 0 -80 223 -80 253 0 25 -3 27 -41 27 -34 0 -39 -2 -30 -14z"/>
<path d="M2780 1506 c0 -28 -111 -301 -127 -313 -14 -11 -9 -13 33 -13 34 0
45 3 34 10 -12 7 -13 16 -3 52 25 94 30 101 66 94 43 -8 78 -35 102 -79 17
-31 18 -40 7 -57 -12 -19 -10 -20 37 -20 l48 0 -22 46 c-12 25 -39 101 -61
169 l-39 125 -37 0 c-26 0 -38 -4 -38 -14z m58 -102 c28 -79 28 -89 0 -70 -12
9 -29 16 -38 16 -33 0 -44 16 -32 47 6 15 16 41 22 57 13 36 21 28 48 -50z"/>
<path d="M2080 1083 c-32 -12 -60 -47 -60 -75 0 -33 10 -36 28 -7 8 13 21 19
35 17 41 -6 29 -68 -14 -68 -25 0 -24 -17 1 -25 39 -12 14 -71 -27 -63 -10 2
-19 13 -21 26 -4 24 -21 29 -40 10 -15 -15 -16 -62 -2 -88 24 -45 129 -31 155
20 21 40 19 60 -7 88 -18 20 -20 26 -9 30 27 9 61 51 61 75 0 40 -59 76 -100
60z"/>
<path d="M2279 1067 c-54 -36 -84 -99 -84 -179 0 -79 14 -100 68 -100 75 0
128 76 101 147 -9 24 -49 36 -79 25 -31 -12 -35 8 -7 33 25 23 68 21 85 -3 18
-26 27 -16 27 31 0 28 -6 42 -22 53 -30 22 -49 20 -89 -7z m36 -148 c9 -28
-16 -53 -44 -44 -20 6 -29 43 -14 58 15 15 52 6 58 -14z"/>
<path d="M2515 1080 c-83 -34 -138 -193 -92 -264 22 -33 73 -35 112 -4 40 31
75 113 75 176 0 43 -5 58 -25 77 -25 26 -38 29 -70 15z m35 -91 c23 -41 -16
-115 -56 -107 -41 8 -43 69 -4 108 26 26 46 25 60 -1z"/>
</g>
</svg>
